<svg width="299" height="59" viewBox="0 0 299 59" fill="none" xmlns="http://www.w3.org/2000/svg">
<path d="M16.6355 8.98238L21.6509 24.4226H11.6202L16.6355 8.98238ZM7.22106 37.9529L9.66094 30.4484H23.5732L26.0624 37.9529H33.2834L20.4063 1.47791H12.8525L0 37.9529H7.22106Z" fill="#37C3DD"/>
<path d="M46.9861 16.1542C51.1018 16.1542 53.7758 19.6908 53.7758 24.5705C53.7758 29.4503 51.1018 32.9869 46.9861 32.9869C42.8703 32.9869 40.0607 29.5489 40.0607 24.5705C40.0607 19.5922 42.8826 16.1542 46.9861 16.1542ZM48.4648 10.609C45.3102 10.609 43.0182 11.5209 40.8617 14.5276V11.1389H34.4047V47.6138H40.8617V34.5642C43.0182 37.6202 45.3102 38.5321 48.4648 38.5321C55.4887 38.5321 60.2699 32.8021 60.2699 24.5705C60.2699 16.339 55.4887 10.609 48.4648 10.609Z" fill="#37C3DD"/>
<path d="M69.4011 37.9529V25.5194C69.4011 21.9828 70.1159 19.8263 71.5576 18.3969C72.605 17.3987 74.133 16.7703 76.3388 16.7703H77.8175V10.5597H77.0535C73.8989 10.5597 71.459 11.5209 69.4011 14.3304V11.1265H62.9441V37.9529H69.4011Z" fill="#37C3DD"/>
<path d="M85.3712 21.0339C85.4698 20.3192 85.7039 19.4073 86.4186 18.5448C87.6632 16.6348 89.6718 15.6736 92.0624 15.6736C94.453 15.6736 96.5109 16.6348 97.7555 18.5448C98.4209 19.3581 98.6673 20.3192 98.7536 21.0339H85.3712ZM92.0624 38.4828C99.2342 38.4828 103.338 34.1329 104.915 28.9204H98.3223C97.4597 31.1138 95.3649 32.9376 92.2965 32.9376C89.5239 32.9376 87.3305 31.5082 86.0859 29.019C85.6053 28.2057 85.1741 27.0104 85.0878 25.8644H105.359V24.4843C105.359 14.7864 98.8152 10.572 91.8776 10.572C82.6972 10.572 78.3966 17.6945 78.3966 24.7184C78.3966 32.6542 83.8432 38.4828 92.0624 38.4828Z" fill="#37C3DD"/>
<path d="M114.428 37.9529V24.2871C114.428 20.7505 114.859 18.7912 115.956 17.4973C116.819 16.4499 118.199 15.8707 120.072 15.8707C121.6 15.8707 122.696 16.2527 123.46 17.066C124.372 18.0642 124.754 19.6907 124.754 22.414V37.9529H131.211V22.5126C131.211 19.8386 131.211 17.3987 130.065 15.0574C128.919 12.5683 126.578 10.5597 121.698 10.5597C118.827 10.5597 116.584 11.5208 114.428 14.5276V1.47791H107.971V37.9529H114.428Z" fill="#37C3DD"/>
<path d="M140.576 21.0339C140.675 20.3192 140.909 19.4073 141.624 18.5448C142.868 16.6348 144.877 15.6736 147.268 15.6736C149.658 15.6736 151.716 16.6348 152.961 18.5448C153.626 19.3581 153.873 20.3192 153.959 21.0339H140.576ZM147.268 38.4828C154.439 38.4828 158.543 34.1329 160.12 28.9204H153.527C152.665 31.1138 150.57 32.9376 147.502 32.9376C144.729 32.9376 142.536 31.5082 141.291 29.019C140.811 28.2057 140.379 27.0104 140.293 25.8644H160.564V24.4843C160.564 14.7864 154.02 10.572 147.083 10.572C137.902 10.572 133.602 17.6945 133.602 24.7184C133.602 32.6542 139.048 38.4828 147.268 38.4828Z" fill="#37C3DD"/>
<path d="M169.596 37.9529V24.2871C169.596 20.7505 170.077 18.7912 171.174 17.4973C172.036 16.4499 173.367 15.8707 175.24 15.8707C176.768 15.8707 177.865 16.2527 178.629 17.066C179.541 18.0642 179.972 19.6908 179.972 22.4141V37.9529H186.38V22.5126C186.38 19.8386 186.38 17.3987 185.283 15.0575C184.088 12.5683 181.796 10.5597 176.916 10.5597C174.045 10.5597 171.753 11.5209 169.609 14.5276V11.1389H163.151V37.9529H169.609H169.596Z" fill="#37C3DD"/>
<path d="M226.897 21.0339C226.995 20.3192 227.229 19.4073 227.944 18.5448C229.189 16.6348 231.197 15.6736 233.588 15.6736C235.978 15.6736 238.036 16.6348 239.281 18.5448C239.946 19.3581 240.193 20.3192 240.279 21.0339H226.897ZM233.588 38.4828C240.76 38.4828 244.863 34.1329 246.44 28.9204H239.848C238.985 31.1138 236.89 32.9376 233.822 32.9376C231.049 32.9376 228.856 31.5082 227.611 29.019C227.131 28.2057 226.7 27.0104 226.613 25.8644H246.884V24.4843C246.884 14.7864 240.341 10.572 233.403 10.572C224.223 10.572 219.922 17.6945 219.922 24.7184C219.922 32.6542 225.369 38.4828 233.588 38.4828Z" fill="#37C3DD"/>
<path d="M255.916 37.9529V25.5194C255.916 21.9828 256.631 19.8263 258.073 18.3969C259.12 17.3987 260.648 16.7703 262.854 16.7703H264.333V10.5597H263.569C260.414 10.5597 257.974 11.5209 255.916 14.3304V11.1265H249.459V37.9529H255.916Z" fill="#37C3DD"/>
<path d="M198.616 20.4548C198.973 19.6291 199.503 18.8651 200.169 18.1874C201.401 16.9551 202.966 16.2404 204.58 16.0433C200.329 15.0821 196.694 14.1702 196.694 10.9417C196.694 8.16911 199.183 6.69039 202.621 6.69039C206.354 6.69039 209.46 8.46485 210.359 12.3342H217.383C216.237 4.44767 209.78 0.8125 202.756 0.8125C195.732 0.8125 189.854 4.49696 189.854 11.5209C189.854 17.1893 193.551 19.4936 197.877 20.8368C198.111 20.7012 198.357 20.5657 198.616 20.4548Z" fill="#A5A5A5"/>
<path d="M198.727 34.404C197.889 34.022 197.1 33.4921 196.398 32.802C194.574 30.9659 193.859 28.4521 194.241 26.0985H188.647C189.497 34.9092 196.669 38.1993 203.335 38.5813C202.226 38.2116 201.191 37.5955 200.304 36.7206C199.614 36.0305 199.084 35.2419 198.714 34.404H198.727Z" fill="#A5A5A5"/>
<path d="M207.193 32.8513C206.712 33.3319 206.195 33.7262 205.64 34.0466C204.851 34.5025 203.989 34.8106 203.114 34.9462C203.989 34.7983 204.851 34.5025 205.64 34.0466C206.195 33.7262 206.724 33.3319 207.193 32.8513C207.341 32.7034 207.488 32.5433 207.624 32.3831C207.488 32.5433 207.353 32.7034 207.193 32.8513Z" fill="#A5A5A5"/>
<path d="M210.951 18.249C210.631 17.9286 210.273 17.6452 209.916 17.3864C208.326 16.2774 206.416 15.8214 204.58 16.0555C202.966 16.2527 201.401 16.9674 200.169 18.1997C199.491 18.8774 198.973 19.6414 198.616 20.467C198.542 20.6396 198.468 20.8244 198.407 21.0092C198.061 21.9827 197.926 23.0055 197.988 24.016C198.061 25.2236 198.431 26.4189 199.072 27.5033C199.269 27.836 199.516 28.1687 199.774 28.4768C199.922 28.6493 200.07 28.8218 200.243 28.9943C200.933 29.6844 201.721 30.2142 202.572 30.5962C202.954 30.7688 203.348 30.9043 203.755 31.0029C204.087 31.0892 204.432 31.1508 204.765 31.2001C204.112 31.0399 203.496 30.6948 202.978 30.1896C202.461 29.6844 202.091 28.9943 201.943 28.3042C201.82 27.7497 201.82 27.1706 201.943 26.616V26.5667C201.943 26.5667 201.943 26.5914 201.943 26.616C202.029 25.852 202.227 25.1127 202.535 24.398C202.867 23.6586 203.323 22.9562 203.902 22.3278C203.964 22.2661 204.026 22.1922 204.087 22.1183C204.568 21.6377 205.085 21.2434 205.64 20.923C206.034 20.6889 206.453 20.504 206.872 20.3561C208.708 19.703 210.754 19.777 212.553 20.578C212.183 19.74 211.641 18.9514 210.951 18.249Z" fill="#11BFDD"/>
<path d="M214.87 22.1676C214.18 21.4776 213.391 20.9354 212.541 20.578C210.742 19.777 208.696 19.7031 206.872 20.3562C206.453 20.5041 206.034 20.7012 205.64 20.9231C205.086 21.2434 204.556 21.6378 204.087 22.1183C204.026 22.18 203.964 22.2539 203.903 22.3278C203.323 22.9563 202.867 23.6463 202.535 24.3857C202.227 25.0758 202.029 25.8151 201.943 26.5545C202.103 25.9014 202.424 25.2853 202.941 24.78C203.459 24.2748 204.013 23.9667 204.63 23.8065C205.283 23.634 205.973 23.634 206.626 23.8065C207.341 23.8928 208.043 24.09 208.721 24.398C209.559 24.7677 210.347 25.3099 211.037 25.9876C211.493 26.4436 211.875 26.9365 212.196 27.4664C213.49 29.6105 213.65 32.2599 212.652 34.5026C213.477 34.1452 214.241 33.6277 214.919 32.9499C217.889 29.9802 217.852 25.162 214.857 22.1676H214.87Z" fill="#A5A5A5"/>
<path d="M201.931 26.5914C201.931 26.5914 201.931 26.5668 201.943 26.5421C202.03 25.8028 202.227 25.0634 202.535 24.3734C202.868 23.634 203.323 22.9316 203.903 22.3155C203.323 22.9439 202.868 23.634 202.535 24.3857C202.227 25.0881 202.017 25.8398 201.943 26.6038L201.931 26.5914Z" fill="#A5A5A5"/>
<path d="M204.087 22.1183C204.025 22.1799 203.964 22.2538 203.902 22.3278C203.964 22.2661 204.025 22.1922 204.087 22.1183C204.568 21.6377 205.085 21.2434 205.64 20.923C206.034 20.6889 206.441 20.504 206.872 20.3561C206.453 20.504 206.034 20.7012 205.64 20.923C205.085 21.2434 204.555 21.6377 204.087 22.1183Z" fill="#A5A5A5"/>
<path d="M200.23 28.9697C200.07 28.8095 199.91 28.637 199.762 28.4521C199.91 28.6247 200.058 28.7972 200.23 28.9697C200.92 29.6598 201.709 30.1896 202.559 30.5716C202.941 30.7442 203.336 30.8797 203.742 30.9783C203.336 30.8674 202.941 30.7442 202.559 30.5716C201.721 30.202 200.933 29.6598 200.23 28.9697Z" fill="#F9D14E"/>
<path d="M198.407 20.9969C198.061 21.9704 197.926 22.9932 197.988 24.0037C197.926 22.9809 198.061 21.9581 198.407 20.9969Z" fill="#F9D14E"/>
<path d="M208.376 30.1896C207.895 30.6702 207.304 31.0029 206.687 31.1631C206.059 31.3356 205.394 31.3356 204.753 31.1631C204.408 31.1262 204.075 31.0522 203.742 30.966C203.336 30.8551 202.941 30.7318 202.559 30.5593C201.721 30.1896 200.933 29.6598 200.23 28.9574C200.07 28.7972 199.91 28.6247 199.762 28.4398C199.503 28.1318 199.269 27.8114 199.06 27.4663C198.407 26.3943 198.049 25.199 197.975 23.979C197.914 22.9563 198.049 21.9335 198.394 20.9723C198.456 20.7875 198.53 20.615 198.604 20.4301C198.357 20.541 198.111 20.6766 197.864 20.8121C197.322 21.1325 196.805 21.5145 196.324 21.9828C195.178 23.1288 194.476 24.5705 194.229 26.0616C193.835 28.4152 194.55 30.929 196.386 32.7651C197.076 33.4551 197.864 33.985 198.715 34.367C200.095 34.9831 201.623 35.168 203.089 34.9338C203.964 34.786 204.827 34.4902 205.615 34.0343C206.17 33.7139 206.7 33.3196 207.168 32.839C207.316 32.6911 207.464 32.5309 207.599 32.3707C208.068 31.8162 208.45 31.2124 208.733 30.5716C209.016 29.9432 209.201 29.2778 209.3 28.6C209.127 29.1792 208.819 29.7091 208.363 30.165L208.376 30.1896Z" fill="#F9D14E"/>
<path d="M212.208 27.4787C211.887 26.9488 211.505 26.4559 211.062 26.0123C210.372 25.3099 209.583 24.78 208.745 24.4103C208.08 24.1146 207.377 23.9174 206.675 23.8188C207.291 23.9914 207.883 24.3241 208.363 24.8047C208.844 25.2852 209.152 25.8398 209.337 26.4312C209.558 27.146 209.558 27.9223 209.337 28.637C209.238 29.3147 209.053 29.9678 208.77 30.6086C208.486 31.2494 208.117 31.8532 207.648 32.4077C207.513 32.5679 207.365 32.7281 207.217 32.876C206.737 33.3566 206.219 33.7509 205.664 34.0713C204.876 34.5272 204.013 34.8353 203.138 34.9708C201.672 35.2173 200.144 35.0324 198.764 34.4163C199.133 35.2542 199.663 36.0429 200.353 36.733C201.241 37.6202 202.276 38.2363 203.385 38.5937C205.282 39.2221 207.377 39.0989 209.189 38.187C209.891 37.8297 210.557 37.3737 211.136 36.7822C211.813 36.1045 212.331 35.3405 212.688 34.5149C213.686 32.2722 213.526 29.6351 212.232 27.4787H212.208Z" fill="#FF6F00"/>
<path d="M211.05 25.9876C210.359 25.2976 209.571 24.7677 208.733 24.398C208.055 24.0899 207.353 23.8928 206.638 23.8065H206.65C207.365 23.9051 208.055 24.1023 208.721 24.398C209.559 24.7677 210.347 25.2976 211.037 25.9876H211.05Z" fill="#FF6F00"/>
<path d="M212.208 27.4787C211.888 26.9488 211.506 26.4559 211.05 26C211.506 26.4559 211.888 26.9612 212.196 27.4787C213.49 29.6352 213.65 32.2722 212.652 34.5149C213.65 32.2722 213.49 29.6229 212.196 27.4787H212.208Z" fill="#FF6F00"/>
<path d="M198.727 34.3917C200.107 35.0079 201.635 35.1927 203.102 34.9586C201.635 35.205 200.107 35.0079 198.727 34.3917Z" fill="#FF6F00"/>
<path d="M57.4393 44.7825C57.3828 44.3055 57.1538 43.9352 56.7521 43.6716C56.3504 43.408 55.8577 43.2762 55.2741 43.2762C54.8473 43.2762 54.4739 43.3453 54.1538 43.4833C53.8368 43.6214 53.5889 43.8113 53.41 44.0529C53.2343 44.2945 53.1464 44.5691 53.1464 44.8766C53.1464 45.134 53.2076 45.3552 53.33 45.5404C53.4555 45.7224 53.6156 45.8746 53.8101 45.9969C54.0047 46.1162 54.2087 46.215 54.4221 46.2935C54.6355 46.3688 54.8316 46.43 55.0105 46.4771L55.9895 46.7407C56.2406 46.8066 56.5199 46.8976 56.8274 47.0137C57.1381 47.1298 57.4346 47.2883 57.7171 47.4891C58.0026 47.6868 58.238 47.941 58.4231 48.2516C58.6083 48.5623 58.7008 48.9436 58.7008 49.3955C58.7008 49.9164 58.5643 50.3871 58.2913 50.8076C58.0214 51.2281 57.626 51.5623 57.1051 51.8102C56.5873 52.0581 55.9582 52.1821 55.2176 52.1821C54.5272 52.1821 53.9294 52.0707 53.4242 51.8479C52.9221 51.6251 52.5267 51.3144 52.238 50.9159C51.9524 50.5173 51.7908 50.0545 51.7531 49.5273H52.9582C52.9895 49.8913 53.1119 50.1925 53.3253 50.431C53.5418 50.6664 53.8149 50.8421 54.1444 50.9582C54.477 51.0712 54.8347 51.1277 55.2176 51.1277C55.6632 51.1277 56.0633 51.0555 56.4179 50.9112C56.7725 50.7637 57.0534 50.5597 57.2605 50.2992C57.4676 50.0356 57.5711 49.7281 57.5711 49.3766C57.5711 49.0566 57.4817 48.7961 57.3028 48.5953C57.124 48.3944 56.8886 48.2313 56.5968 48.1057C56.3049 47.9802 55.9895 47.8704 55.6506 47.7762L54.4644 47.4373C53.7113 47.2208 53.1151 46.9117 52.6757 46.51C52.2364 46.1083 52.0167 45.5827 52.0167 44.9331C52.0167 44.3934 52.1627 43.9227 52.4545 43.521C52.7495 43.1162 53.1449 42.8024 53.6407 42.5796C54.1396 42.3536 54.6967 42.2407 55.3117 42.2407C55.9331 42.2407 56.4854 42.3521 56.9686 42.5749C57.4519 42.7945 57.8347 43.0958 58.1172 43.4786C58.4027 43.8615 58.5534 44.2961 58.569 44.7825H57.4393ZM60.4695 52.0126V44.7825H61.5804V52.0126H60.4695ZM61.0344 43.5775C60.8179 43.5775 60.6311 43.5037 60.4742 43.3562C60.3205 43.2088 60.2436 43.0315 60.2436 42.8243C60.2436 42.6172 60.3205 42.4399 60.4742 42.2924C60.6311 42.145 60.8179 42.0712 61.0344 42.0712C61.2509 42.0712 61.4361 42.145 61.5898 42.2924C61.7467 42.4399 61.8252 42.6172 61.8252 42.8243C61.8252 43.0315 61.7467 43.2088 61.5898 43.3562C61.4361 43.5037 61.2509 43.5775 61.0344 43.5775ZM68.7364 46.4018L67.7385 46.6842C67.6757 46.5179 67.5832 46.3563 67.4608 46.1993C67.3415 46.0393 67.1784 45.9075 66.9712 45.8039C66.7641 45.7004 66.499 45.6486 66.1757 45.6486C65.7333 45.6486 65.3645 45.7506 65.0696 45.9546C64.7777 46.1554 64.6318 46.4112 64.6318 46.7218C64.6318 46.998 64.7322 47.2161 64.9331 47.3761C65.1339 47.5362 65.4477 47.6695 65.8745 47.7762L66.9477 48.0398C67.5941 48.1967 68.0758 48.4368 68.3928 48.76C68.7097 49.0801 68.8682 49.4928 68.8682 49.998C68.8682 50.4122 68.749 50.7825 68.5105 51.1089C68.2751 51.4352 67.9456 51.6926 67.522 51.8808C67.0983 52.0691 66.6057 52.1633 66.0439 52.1633C65.3065 52.1633 64.6961 52.0032 64.2129 51.6831C63.7296 51.3631 63.4236 50.8955 63.295 50.2804L64.3494 50.0168C64.4498 50.4059 64.6397 50.6978 64.9189 50.8923C65.2014 51.0869 65.5701 51.1842 66.0251 51.1842C66.5429 51.1842 66.954 51.0743 67.2584 50.8547C67.5659 50.6319 67.7197 50.3651 67.7197 50.0545C67.7197 49.8034 67.6318 49.5932 67.4561 49.4237C67.2803 49.2511 67.0105 49.1225 66.6465 49.0377L65.4414 48.7553C64.7793 48.5984 64.2929 48.3552 63.9822 48.0257C63.6747 47.6931 63.5209 47.2773 63.5209 46.7783C63.5209 46.3704 63.6355 46.0095 63.8645 45.6957C64.0968 45.3819 64.4121 45.1355 64.8107 44.9567C65.2123 44.7778 65.6674 44.6884 66.1757 44.6884C66.8912 44.6884 67.4529 44.8453 67.8609 45.1591C68.272 45.4729 68.5638 45.8871 68.7364 46.4018ZM73.6848 44.7825V45.7239H69.9379V44.7825H73.6848ZM71.03 43.0503H72.1408V49.9415C72.1408 50.2553 72.1863 50.4907 72.2773 50.6476C72.3715 50.8013 72.4907 50.9049 72.6351 50.9582C72.7826 51.0084 72.9379 51.0336 73.1011 51.0336C73.2235 51.0336 73.3239 51.0273 73.4023 51.0147C73.4808 50.999 73.5436 50.9865 73.5906 50.9771L73.8166 51.975C73.7412 52.0032 73.6361 52.0315 73.5012 52.0597C73.3662 52.0911 73.1952 52.1068 72.9881 52.1068C72.6743 52.1068 72.3668 52.0393 72.0655 51.9044C71.7674 51.7694 71.5195 51.5639 71.3218 51.2877C71.1272 51.0116 71.03 50.6633 71.03 50.2428V43.0503ZM78.3095 52.1633C77.6129 52.1633 77.0119 52.0095 76.5067 51.702C76.0046 51.3913 75.617 50.9582 75.344 50.4028C75.0741 49.8442 74.9392 49.1946 74.9392 48.4541C74.9392 47.7135 75.0741 47.0607 75.344 46.4959C75.617 45.9279 75.9967 45.4854 76.4831 45.1685C76.9727 44.8484 77.5438 44.6884 78.1965 44.6884C78.5731 44.6884 78.945 44.7511 79.3121 44.8766C79.6793 45.0022 80.0135 45.2061 80.3147 45.4886C80.616 45.7679 80.8561 46.1382 81.0349 46.5995C81.2138 47.0607 81.3032 47.6287 81.3032 48.3034V48.7741H75.73V47.8139H80.1735C80.1735 47.4059 80.0919 47.0419 79.9288 46.7218C79.7687 46.4018 79.5396 46.1491 79.2415 45.964C78.9465 45.7788 78.5982 45.6863 78.1965 45.6863C77.7541 45.6863 77.3712 45.7961 77.048 46.0158C76.7279 46.2323 76.4816 46.5147 76.309 46.8631C76.1364 47.2114 76.0501 47.5848 76.0501 47.9833V48.6235C76.0501 49.1695 76.1442 49.6324 76.3325 50.0121C76.5239 50.3887 76.7891 50.6758 77.128 50.8735C77.4669 51.0681 77.8608 51.1654 78.3095 51.1654C78.6013 51.1654 78.8649 51.1246 79.1003 51.043C79.3388 50.9582 79.5443 50.8327 79.7169 50.6664C79.8895 50.4969 80.0229 50.2867 80.117 50.0356L81.1903 50.3369C81.0773 50.7009 80.8874 51.021 80.6207 51.2972C80.354 51.5702 80.0245 51.7836 79.6322 51.9373C79.2399 52.0879 78.799 52.1633 78.3095 52.1633ZM82.9931 52.0126V44.7825H84.0663V45.9122H84.1604C84.3111 45.5262 84.5543 45.2265 84.8901 45.0132C85.2258 44.7966 85.6291 44.6884 86.0998 44.6884C86.5768 44.6884 86.9737 44.7966 87.2907 45.0132C87.6108 45.2265 87.8602 45.5262 88.0391 45.9122H88.1144C88.2996 45.5388 88.5773 45.2422 88.9476 45.0226C89.3179 44.7998 89.7619 44.6884 90.2797 44.6884C90.9261 44.6884 91.4549 44.8908 91.866 45.2956C92.2771 45.6973 92.4826 46.3233 92.4826 47.1737V52.0126H91.3717V47.1737C91.3717 46.6402 91.2258 46.259 90.934 46.0299C90.6421 45.8008 90.2985 45.6863 89.9031 45.6863C89.3948 45.6863 89.0009 45.84 88.7216 46.1476C88.4424 46.452 88.3027 46.8379 88.3027 47.3055V52.0126H87.173V47.0607C87.173 46.6497 87.0396 46.3186 86.7729 46.0675C86.5062 45.8134 86.1625 45.6863 85.742 45.6863C85.4533 45.6863 85.1835 45.7632 84.9324 45.9169C84.6845 46.0707 84.4837 46.2841 84.3299 46.5571C84.1793 46.827 84.104 47.1392 84.104 47.4938V52.0126H82.9931ZM96.6414 52.1821C96.1832 52.1821 95.7674 52.0958 95.394 51.9232C95.0205 51.7475 94.724 51.4949 94.5043 51.1654C94.2847 50.8327 94.1748 50.431 94.1748 49.9603C94.1748 49.5461 94.2564 49.2103 94.4196 48.953C94.5828 48.6925 94.8009 48.4886 95.0739 48.3411C95.3469 48.1936 95.6482 48.0838 95.9777 48.0116C96.3103 47.9363 96.6445 47.8766 96.9803 47.8327C97.4196 47.7762 97.7758 47.7339 98.0488 47.7056C98.3249 47.6742 98.5258 47.6225 98.6513 47.5503C98.78 47.4781 98.8443 47.3526 98.8443 47.1737V47.1361C98.8443 46.6716 98.7172 46.3107 98.463 46.0534C98.212 45.7961 97.8307 45.6674 97.3192 45.6674C96.7889 45.6674 96.3731 45.7836 96.0718 46.0158C95.7705 46.248 95.5587 46.4959 95.4363 46.7595L94.3819 46.3829C94.5702 45.9436 94.8213 45.6015 95.1351 45.3568C95.452 45.1089 95.7972 44.9363 96.1707 44.839C96.5472 44.7386 96.9175 44.6884 97.2815 44.6884C97.5137 44.6884 97.7805 44.7166 98.0817 44.7731C98.3861 44.8264 98.6795 44.9378 98.962 45.1073C99.2475 45.2768 99.4845 45.5325 99.6727 45.8746C99.861 46.2166 99.9552 46.6748 99.9552 47.249V52.0126H98.8443V51.0336H98.7878C98.7125 51.1905 98.587 51.3583 98.4112 51.5372C98.2355 51.7161 98.0017 51.8683 97.7099 51.9938C97.418 52.1193 97.0619 52.1821 96.6414 52.1821ZM96.8108 51.1842C97.2501 51.1842 97.6204 51.0979 97.9217 50.9253C98.2261 50.7527 98.4552 50.5299 98.6089 50.2569C98.7658 49.9839 98.8443 49.6967 98.8443 49.3955V48.3787C98.7972 48.4352 98.6937 48.487 98.5336 48.5341C98.3767 48.578 98.1947 48.6172 97.9876 48.6518C97.7836 48.6831 97.5844 48.7114 97.3898 48.7365C97.1984 48.7584 97.043 48.7773 96.9238 48.793C96.6351 48.8306 96.3652 48.8918 96.1142 48.9765C95.8663 49.0581 95.6654 49.1821 95.5117 49.3484C95.361 49.5116 95.2857 49.7344 95.2857 50.0168C95.2857 50.4028 95.4285 50.6946 95.7141 50.8923C96.0028 51.0869 96.3683 51.1842 96.8108 51.1842ZM108.441 52.1633C107.838 52.1633 107.307 52.0111 106.845 51.7067C106.384 51.3991 106.023 50.9661 105.763 50.4075C105.502 49.8458 105.372 49.1821 105.372 48.4164C105.372 47.657 105.502 46.998 105.763 46.4394C106.023 45.8808 106.385 45.4493 106.85 45.145C107.314 44.8406 107.851 44.6884 108.46 44.6884C108.93 44.6884 109.302 44.7668 109.575 44.9237C109.851 45.0775 110.062 45.2532 110.206 45.4509C110.354 45.6455 110.468 45.8055 110.55 45.931H110.644V42.3725H111.755V52.0126H110.682V50.9018H110.55C110.468 51.0336 110.352 51.1999 110.201 51.4007C110.051 51.5984 109.836 51.7757 109.557 51.9326C109.277 52.0864 108.905 52.1633 108.441 52.1633ZM108.592 51.1654C109.037 51.1654 109.414 51.0492 109.721 50.817C110.029 50.5817 110.263 50.2569 110.423 49.8427C110.583 49.4253 110.663 48.9436 110.663 48.3976C110.663 47.8578 110.584 47.3855 110.427 46.9807C110.27 46.5728 110.038 46.2558 109.731 46.0299C109.423 45.8008 109.043 45.6863 108.592 45.6863C108.121 45.6863 107.729 45.8071 107.415 46.0487C107.104 46.2872 106.87 46.612 106.713 47.0231C106.56 47.431 106.483 47.8892 106.483 48.3976C106.483 48.9122 106.561 49.3798 106.718 49.8003C106.878 50.2177 107.114 50.5503 107.424 50.7982C107.738 51.043 108.127 51.1654 108.592 51.1654ZM116.975 52.1633C116.278 52.1633 115.677 52.0095 115.172 51.702C114.67 51.3913 114.282 50.9582 114.009 50.4028C113.74 49.8442 113.605 49.1946 113.605 48.4541C113.605 47.7135 113.74 47.0607 114.009 46.4959C114.282 45.9279 114.662 45.4854 115.149 45.1685C115.638 44.8484 116.209 44.6884 116.862 44.6884C117.239 44.6884 117.61 44.7511 117.978 44.8766C118.345 45.0022 118.679 45.2061 118.98 45.4886C119.281 45.7679 119.521 46.1382 119.7 46.5995C119.879 47.0607 119.969 47.6287 119.969 48.3034V48.7741H114.395V47.8139H118.839C118.839 47.4059 118.757 47.0419 118.594 46.7218C118.434 46.4018 118.205 46.1491 117.907 45.964C117.612 45.7788 117.264 45.6863 116.862 45.6863C116.419 45.6863 116.037 45.7961 115.713 46.0158C115.393 46.2323 115.147 46.5147 114.974 46.8631C114.802 47.2114 114.716 47.5848 114.716 47.9833V48.6235C114.716 49.1695 114.81 49.6324 114.998 50.0121C115.189 50.3887 115.455 50.6758 115.793 50.8735C116.132 51.0681 116.526 51.1654 116.975 51.1654C117.267 51.1654 117.53 51.1246 117.766 51.043C118.004 50.9582 118.21 50.8327 118.382 50.6664C118.555 50.4969 118.688 50.2867 118.782 50.0356L119.856 50.3369C119.743 50.7009 119.553 51.021 119.286 51.2972C119.019 51.5702 118.69 51.7836 118.298 51.9373C117.905 52.0879 117.464 52.1633 116.975 52.1633ZM126.705 42.3725V52.0126H125.537V42.3725H126.705ZM130.005 47.6633V52.0126H128.895V44.7825H129.968V45.9122H130.062C130.231 45.5451 130.489 45.2501 130.834 45.0273C131.179 44.8013 131.625 44.6884 132.171 44.6884C132.66 44.6884 133.089 44.7888 133.456 44.9896C133.823 45.1873 134.108 45.4886 134.312 45.8934C134.516 46.2951 134.618 46.8034 134.618 47.4185V52.0126H133.507V47.4938C133.507 46.9258 133.36 46.4833 133.065 46.1664C132.77 45.8463 132.365 45.6863 131.851 45.6863C131.496 45.6863 131.179 45.7632 130.9 45.9169C130.624 46.0707 130.405 46.2951 130.245 46.59C130.085 46.885 130.005 47.2428 130.005 47.6633ZM137.759 47.6633V52.0126H136.648V44.7825H137.722V45.9122H137.816C137.985 45.5451 138.242 45.2501 138.588 45.0273C138.933 44.8013 139.378 44.6884 139.924 44.6884C140.414 44.6884 140.842 44.7888 141.21 44.9896C141.577 45.1873 141.862 45.4886 142.066 45.8934C142.27 46.2951 142.372 46.8034 142.372 47.4185V52.0126H141.261V47.4938C141.261 46.9258 141.114 46.4833 140.819 46.1664C140.524 45.8463 140.119 45.6863 139.604 45.6863C139.25 45.6863 138.933 45.7632 138.654 45.9169C138.377 46.0707 138.159 46.2951 137.999 46.59C137.839 46.885 137.759 47.2428 137.759 47.6633ZM147.339 52.1633C146.687 52.1633 146.114 52.0079 145.621 51.6973C145.132 51.3866 144.749 50.952 144.473 50.3934C144.2 49.8348 144.063 49.1821 144.063 48.4352C144.063 47.6821 144.2 47.0247 144.473 46.4629C144.749 45.9012 145.132 45.465 145.621 45.1544C146.114 44.8437 146.687 44.6884 147.339 44.6884C147.992 44.6884 148.563 44.8437 149.053 45.1544C149.545 45.465 149.928 45.9012 150.201 46.4629C150.477 47.0247 150.615 47.6821 150.615 48.4352C150.615 49.1821 150.477 49.8348 150.201 50.3934C149.928 50.952 149.545 51.3866 149.053 51.6973C148.563 52.0079 147.992 52.1633 147.339 52.1633ZM147.339 51.1654C147.835 51.1654 148.243 51.0383 148.563 50.7841C148.883 50.5299 149.12 50.1957 149.274 49.7815C149.428 49.3672 149.505 48.9185 149.505 48.4352C149.505 47.952 149.428 47.5016 149.274 47.0843C149.12 46.6669 148.883 46.3296 148.563 46.0723C148.243 45.8149 147.835 45.6863 147.339 45.6863C146.844 45.6863 146.436 45.8149 146.115 46.0723C145.795 46.3296 145.558 46.6669 145.405 47.0843C145.251 47.5016 145.174 47.952 145.174 48.4352C145.174 48.9185 145.251 49.3672 145.405 49.7815C145.558 50.1957 145.795 50.5299 146.115 50.7841C146.436 51.0383 146.844 51.1654 147.339 51.1654ZM157.964 44.7825L155.291 52.0126H154.161L151.487 44.7825H152.693L154.688 50.544H154.764L156.759 44.7825H157.964ZM161.338 52.1821C160.88 52.1821 160.464 52.0958 160.091 51.9232C159.717 51.7475 159.421 51.4949 159.201 51.1654C158.982 50.8327 158.872 50.431 158.872 49.9603C158.872 49.5461 158.953 49.2103 159.117 48.953C159.28 48.6925 159.498 48.4886 159.771 48.3411C160.044 48.1936 160.345 48.0838 160.675 48.0116C161.007 47.9363 161.341 47.8766 161.677 47.8327C162.117 47.7762 162.473 47.7339 162.746 47.7056C163.022 47.6742 163.223 47.6225 163.348 47.5503C163.477 47.4781 163.541 47.3526 163.541 47.1737V47.1361C163.541 46.6716 163.414 46.3107 163.16 46.0534C162.909 45.7961 162.528 45.6674 162.016 45.6674C161.486 45.6674 161.07 45.7836 160.769 46.0158C160.467 46.248 160.256 46.4959 160.133 46.7595L159.079 46.3829C159.267 45.9436 159.518 45.6015 159.832 45.3568C160.149 45.1089 160.494 44.9363 160.868 44.839C161.244 44.7386 161.614 44.6884 161.978 44.6884C162.211 44.6884 162.477 44.7166 162.779 44.7731C163.083 44.8264 163.376 44.9378 163.659 45.1073C163.944 45.2768 164.181 45.5325 164.37 45.8746C164.558 46.2166 164.652 46.6748 164.652 47.249V52.0126H163.541V51.0336H163.485C163.409 51.1905 163.284 51.3583 163.108 51.5372C162.932 51.7161 162.699 51.8683 162.407 51.9938C162.115 52.1193 161.759 52.1821 161.338 52.1821ZM161.508 51.1842C161.947 51.1842 162.317 51.0979 162.619 50.9253C162.923 50.7527 163.152 50.5299 163.306 50.2569C163.463 49.9839 163.541 49.6967 163.541 49.3955V48.3787C163.494 48.4352 163.391 48.487 163.231 48.5341C163.074 48.578 162.892 48.6172 162.685 48.6518C162.481 48.6831 162.281 48.7114 162.087 48.7365C161.895 48.7584 161.74 48.7773 161.621 48.793C161.332 48.8306 161.062 48.8918 160.811 48.9765C160.563 49.0581 160.362 49.1821 160.209 49.3484C160.058 49.5116 159.983 49.7344 159.983 50.0168C159.983 50.4028 160.125 50.6946 160.411 50.8923C160.7 51.0869 161.065 51.1842 161.508 51.1842ZM169.617 52.1633C168.939 52.1633 168.355 52.0032 167.866 51.6831C167.376 51.3631 167 50.9222 166.736 50.3604C166.473 49.7987 166.341 49.157 166.341 48.4352C166.341 47.7009 166.476 47.0529 166.746 46.4912C167.019 45.9263 167.398 45.4854 167.885 45.1685C168.374 44.8484 168.945 44.6884 169.598 44.6884C170.106 44.6884 170.565 44.7825 170.973 44.9708C171.381 45.1591 171.715 45.4227 171.975 45.7616C172.236 46.1005 172.397 46.4959 172.46 46.9478H171.349C171.264 46.6183 171.076 46.3264 170.784 46.0723C170.496 45.8149 170.106 45.6863 169.617 45.6863C169.184 45.6863 168.804 45.7992 168.478 46.0252C168.155 46.248 167.902 46.5634 167.72 46.9713C167.541 47.3761 167.452 47.8515 167.452 48.3976C167.452 48.9561 167.54 49.4425 167.715 49.8568C167.894 50.271 168.145 50.5927 168.468 50.8217C168.795 51.0508 169.178 51.1654 169.617 51.1654C169.906 51.1654 170.168 51.1151 170.403 51.0147C170.638 50.9143 170.838 50.77 171.001 50.5817C171.164 50.3934 171.28 50.1674 171.349 49.9038H172.46C172.397 50.3306 172.242 50.715 171.994 51.0571C171.749 51.396 171.424 51.6659 171.02 51.8667C170.618 52.0644 170.15 52.1633 169.617 52.1633ZM174.084 52.0126V44.7825H175.195V52.0126H174.084ZM174.649 43.5775C174.432 43.5775 174.246 43.5037 174.089 43.3562C173.935 43.2088 173.858 43.0315 173.858 42.8243C173.858 42.6172 173.935 42.4399 174.089 42.2924C174.246 42.145 174.432 42.0712 174.649 42.0712C174.865 42.0712 175.051 42.145 175.204 42.2924C175.361 42.4399 175.44 42.6172 175.44 42.8243C175.44 43.0315 175.361 43.2088 175.204 43.3562C175.051 43.5037 174.865 43.5775 174.649 43.5775ZM180.167 52.1633C179.514 52.1633 178.941 52.0079 178.449 51.6973C177.959 51.3866 177.576 50.952 177.3 50.3934C177.027 49.8348 176.891 49.1821 176.891 48.4352C176.891 47.6821 177.027 47.0247 177.3 46.4629C177.576 45.9012 177.959 45.465 178.449 45.1544C178.941 44.8437 179.514 44.6884 180.167 44.6884C180.819 44.6884 181.391 44.8437 181.88 45.1544C182.373 45.465 182.756 45.9012 183.029 46.4629C183.305 47.0247 183.443 47.6821 183.443 48.4352C183.443 49.1821 183.305 49.8348 183.029 50.3934C182.756 50.952 182.373 51.3866 181.88 51.6973C181.391 52.0079 180.819 52.1633 180.167 52.1633ZM180.167 51.1654C180.663 51.1654 181.071 51.0383 181.391 50.7841C181.711 50.5299 181.948 50.1957 182.101 49.7815C182.255 49.3672 182.332 48.9185 182.332 48.4352C182.332 47.952 182.255 47.5016 182.101 47.0843C181.948 46.6669 181.711 46.3296 181.391 46.0723C181.071 45.8149 180.663 45.6863 180.167 45.6863C179.671 45.6863 179.263 45.8149 178.943 46.0723C178.623 46.3296 178.386 46.6669 178.232 47.0843C178.078 47.5016 178.001 47.952 178.001 48.4352C178.001 48.9185 178.078 49.3672 178.232 49.7815C178.386 50.1957 178.623 50.5299 178.943 50.7841C179.263 51.0383 179.671 51.1654 180.167 51.1654ZM179.658 43.8034L180.807 41.6193H182.106L180.637 43.8034H179.658ZM186.25 47.6633V52.0126H185.139V44.7825H186.212V45.9122H186.306C186.475 45.5451 186.733 45.2501 187.078 45.0273C187.423 44.8013 187.869 44.6884 188.415 44.6884C188.904 44.6884 189.333 44.7888 189.7 44.9896C190.067 45.1873 190.353 45.4886 190.557 45.8934C190.761 46.2951 190.863 46.8034 190.863 47.4185V52.0126H189.752V47.4938C189.752 46.9258 189.604 46.4833 189.309 46.1664C189.014 45.8463 188.609 45.6863 188.095 45.6863C187.74 45.6863 187.423 45.7632 187.144 45.9169C186.868 46.0707 186.65 46.2951 186.49 46.59C186.33 46.885 186.25 47.2428 186.25 47.6633ZM196.771 52.0126V42.3725H202.589V43.408H197.938V46.6654H202.288V47.7009H197.938V50.9771H202.664V52.0126H196.771ZM207.273 52.1633C206.67 52.1633 206.138 52.0111 205.677 51.7067C205.216 51.3991 204.855 50.9661 204.594 50.4075C204.334 49.8458 204.204 49.1821 204.204 48.4164C204.204 47.657 204.334 46.998 204.594 46.4394C204.855 45.8808 205.217 45.4493 205.682 45.145C206.146 44.8406 206.683 44.6884 207.292 44.6884C207.762 44.6884 208.134 44.7668 208.407 44.9237C208.683 45.0775 208.893 45.2532 209.038 45.4509C209.185 45.6455 209.3 45.8055 209.381 45.931H209.476V42.3725H210.586V52.0126H209.513V50.9018H209.381C209.3 51.0336 209.184 51.1999 209.033 51.4007C208.883 51.5984 208.668 51.7757 208.388 51.9326C208.109 52.0864 207.737 52.1633 207.273 52.1633ZM207.423 51.1654C207.869 51.1654 208.245 51.0492 208.553 50.817C208.861 50.5817 209.094 50.2569 209.254 49.8427C209.414 49.4253 209.494 48.9436 209.494 48.3976C209.494 47.8578 209.416 47.3855 209.259 46.9807C209.102 46.5728 208.87 46.2558 208.562 46.0299C208.255 45.8008 207.875 45.6863 207.423 45.6863C206.953 45.6863 206.56 45.8071 206.247 46.0487C205.936 46.2872 205.702 46.612 205.545 47.0231C205.391 47.431 205.315 47.8892 205.315 48.3976C205.315 48.9122 205.393 49.3798 205.55 49.8003C205.71 50.2177 205.945 50.5503 206.256 50.7982C206.57 51.043 206.959 51.1654 207.423 51.1654ZM217.332 49.0566V44.7825H218.443V52.0126H217.332V50.7888H217.256C217.087 51.1559 216.823 51.4682 216.466 51.7255C216.108 51.9797 215.656 52.1068 215.11 52.1068C214.658 52.1068 214.256 52.0079 213.905 51.8102C213.554 51.6094 213.277 51.3081 213.077 50.9065C212.876 50.5017 212.775 49.9917 212.775 49.3766V44.7825H213.886V49.3013C213.886 49.8285 214.034 50.249 214.329 50.5628C214.627 50.8767 215.006 51.0336 215.468 51.0336C215.744 51.0336 216.025 50.9629 216.31 50.8217C216.599 50.6805 216.841 50.464 217.035 50.1722C217.233 49.8803 217.332 49.5084 217.332 49.0566ZM223.415 52.1633C222.737 52.1633 222.153 52.0032 221.664 51.6831C221.174 51.3631 220.797 50.9222 220.534 50.3604C220.27 49.7987 220.138 49.157 220.138 48.4352C220.138 47.7009 220.273 47.0529 220.543 46.4912C220.816 45.9263 221.196 45.4854 221.682 45.1685C222.172 44.8484 222.743 44.6884 223.396 44.6884C223.904 44.6884 224.362 44.7825 224.77 44.9708C225.178 45.1591 225.512 45.4227 225.773 45.7616C226.033 46.1005 226.195 46.4959 226.258 46.9478H225.147C225.062 46.6183 224.874 46.3264 224.582 46.0723C224.293 45.8149 223.904 45.6863 223.415 45.6863C222.982 45.6863 222.602 45.7992 222.275 46.0252C221.952 46.248 221.7 46.5634 221.518 46.9713C221.339 47.3761 221.249 47.8515 221.249 48.3976C221.249 48.9561 221.337 49.4425 221.513 49.8568C221.692 50.271 221.943 50.5927 222.266 50.8217C222.592 51.0508 222.975 51.1654 223.415 51.1654C223.703 51.1654 223.965 51.1151 224.201 51.0147C224.436 50.9143 224.635 50.77 224.798 50.5817C224.962 50.3934 225.078 50.1674 225.147 49.9038H226.258C226.195 50.3306 226.04 50.715 225.792 51.0571C225.547 51.396 225.222 51.6659 224.817 51.8667C224.416 52.0644 223.948 52.1633 223.415 52.1633ZM230.009 52.1821C229.551 52.1821 229.135 52.0958 228.762 51.9232C228.388 51.7475 228.092 51.4949 227.872 51.1654C227.653 50.8327 227.543 50.431 227.543 49.9603C227.543 49.5461 227.624 49.2103 227.787 48.953C227.951 48.6925 228.169 48.4886 228.442 48.3411C228.715 48.1936 229.016 48.0838 229.346 48.0116C229.678 47.9363 230.012 47.8766 230.348 47.8327C230.787 47.7762 231.144 47.7339 231.417 47.7056C231.693 47.6742 231.894 47.6225 232.019 47.5503C232.148 47.4781 232.212 47.3526 232.212 47.1737V47.1361C232.212 46.6716 232.085 46.3107 231.831 46.0534C231.58 45.7961 231.199 45.6674 230.687 45.6674C230.157 45.6674 229.741 45.7836 229.44 46.0158C229.138 46.248 228.927 46.4959 228.804 46.7595L227.75 46.3829C227.938 45.9436 228.189 45.6015 228.503 45.3568C228.82 45.1089 229.165 44.9363 229.539 44.839C229.915 44.7386 230.285 44.6884 230.649 44.6884C230.882 44.6884 231.148 44.7166 231.45 44.7731C231.754 44.8264 232.047 44.9378 232.33 45.1073C232.615 45.2768 232.852 45.5325 233.041 45.8746C233.229 46.2166 233.323 46.6748 233.323 47.249V52.0126H232.212V51.0336H232.156C232.08 51.1905 231.955 51.3583 231.779 51.5372C231.603 51.7161 231.37 51.8683 231.078 51.9938C230.786 52.1193 230.43 52.1821 230.009 52.1821ZM230.179 51.1842C230.618 51.1842 230.988 51.0979 231.29 50.9253C231.594 50.7527 231.823 50.5299 231.977 50.2569C232.134 49.9839 232.212 49.6967 232.212 49.3955V48.3787C232.165 48.4352 232.062 48.487 231.901 48.5341C231.745 48.578 231.563 48.6172 231.355 48.6518C231.151 48.6831 230.952 48.7114 230.758 48.7365C230.566 48.7584 230.411 48.7773 230.292 48.793C230.003 48.8306 229.733 48.8918 229.482 48.9765C229.234 49.0581 229.033 49.1821 228.88 49.3484C228.729 49.5116 228.654 49.7344 228.654 50.0168C228.654 50.4028 228.796 50.6946 229.082 50.8923C229.371 51.0869 229.736 51.1842 230.179 51.1842ZM238.495 44.7825V45.7239H234.748V44.7825H238.495ZM235.84 43.0503H236.951V49.9415C236.951 50.2553 236.997 50.4907 237.088 50.6476C237.182 50.8013 237.301 50.9049 237.445 50.9582C237.593 51.0084 237.748 51.0336 237.911 51.0336C238.034 51.0336 238.134 51.0273 238.213 51.0147C238.291 50.999 238.354 50.9865 238.401 50.9771L238.627 51.975C238.551 52.0032 238.446 52.0315 238.311 52.0597C238.176 52.0911 238.005 52.1068 237.798 52.1068C237.485 52.1068 237.177 52.0393 236.876 51.9044C236.578 51.7694 236.33 51.5639 236.132 51.2877C235.937 51.0116 235.84 50.6633 235.84 50.2428V43.0503ZM240.166 52.0126V44.7825H241.277V52.0126H240.166ZM240.731 43.5775C240.514 43.5775 240.328 43.5037 240.171 43.3562C240.017 43.2088 239.94 43.0315 239.94 42.8243C239.94 42.6172 240.017 42.4399 240.171 42.2924C240.328 42.145 240.514 42.0712 240.731 42.0712C240.947 42.0712 241.133 42.145 241.286 42.2924C241.443 42.4399 241.522 42.6172 241.522 42.8243C241.522 43.0315 241.443 43.2088 241.286 43.3562C241.133 43.5037 240.947 43.5775 240.731 43.5775ZM249.224 44.7825L246.55 52.0126H245.42L242.747 44.7825H243.952L245.948 50.544H246.023L248.019 44.7825H249.224ZM252.597 52.1821C252.139 52.1821 251.724 52.0958 251.35 51.9232C250.977 51.7475 250.68 51.4949 250.46 51.1654C250.241 50.8327 250.131 50.431 250.131 49.9603C250.131 49.5461 250.213 49.2103 250.376 48.953C250.539 48.6925 250.757 48.4886 251.03 48.3411C251.303 48.1936 251.604 48.0838 251.934 48.0116C252.266 47.9363 252.601 47.8766 252.936 47.8327C253.376 47.7762 253.732 47.7339 254.005 47.7056C254.281 47.6742 254.482 47.6225 254.607 47.5503C254.736 47.4781 254.8 47.3526 254.8 47.1737V47.1361C254.8 46.6716 254.673 46.3107 254.419 46.0534C254.168 45.7961 253.787 45.6674 253.275 45.6674C252.745 45.6674 252.329 45.7836 252.028 46.0158C251.727 46.248 251.515 46.4959 251.392 46.7595L250.338 46.3829C250.526 45.9436 250.777 45.6015 251.091 45.3568C251.408 45.1089 251.753 44.9363 252.127 44.839C252.503 44.7386 252.874 44.6884 253.238 44.6884C253.47 44.6884 253.737 44.7166 254.038 44.7731C254.342 44.8264 254.636 44.9378 254.918 45.1073C255.204 45.2768 255.441 45.5325 255.629 45.8746C255.817 46.2166 255.911 46.6748 255.911 47.249V52.0126H254.8V51.0336H254.744C254.669 51.1905 254.543 51.3583 254.367 51.5372C254.192 51.7161 253.958 51.8683 253.666 51.9938C253.374 52.1193 253.018 52.1821 252.597 52.1821ZM252.767 51.1842C253.206 51.1842 253.577 51.0979 253.878 50.9253C254.182 50.7527 254.411 50.5299 254.565 50.2569C254.722 49.9839 254.8 49.6967 254.8 49.3955V48.3787C254.753 48.4352 254.65 48.487 254.49 48.5341C254.333 48.578 254.151 48.6172 253.944 48.6518C253.74 48.6831 253.54 48.7114 253.346 48.7365C253.155 48.7584 252.999 48.7773 252.88 48.793C252.591 48.8306 252.321 48.8918 252.07 48.9765C251.822 49.0581 251.622 49.1821 251.468 49.3484C251.317 49.5116 251.242 49.7344 251.242 50.0168C251.242 50.4028 251.385 50.6946 251.67 50.8923C251.959 51.0869 252.324 51.1842 252.767 51.1842Z" fill="#A5A5A5"/>
</svg>
