<svg width="237" height="43" viewBox="0 0 237 43" fill="none" xmlns="http://www.w3.org/2000/svg">
<path d="M14.9154 7.42282L19.4121 21.3795H10.4187L14.9154 7.42282ZM6.47438 33.6097L8.66197 26.8263H21.1357L23.3674 33.6097H29.8418L18.2962 0.639404H11.5235L0 33.6097H6.47438Z" fill="#37C3DD"/>
<path d="M42.1277 13.9052C45.8179 13.9052 48.2154 17.102 48.2154 21.5129C48.2154 25.9238 45.8179 29.1205 42.1277 29.1205C38.4375 29.1205 35.9185 26.0129 35.9185 21.5129C35.9185 17.0129 38.4486 13.9052 42.1277 13.9052ZM43.4535 8.89282C40.6251 8.89282 38.5701 9.71708 36.6366 12.4349V9.37178H30.8473V42.3421H36.6366V30.5463C38.5701 33.3087 40.6251 34.1329 43.4535 34.1329C49.7511 34.1329 54.0379 28.9535 54.0379 21.5129C54.0379 14.0723 49.7511 8.89282 43.4535 8.89282Z" fill="#37C3DD"/>
<path d="M62.2248 33.6098V22.3709C62.2248 19.1741 62.8656 17.2249 64.1583 15.9328C65.0974 15.0306 66.4674 14.4625 68.4451 14.4625H69.7709V8.84863H69.0859C66.2575 8.84863 64.0699 9.71745 62.2248 12.257V9.36101H56.4355V33.6098H62.2248Z" fill="#37C3DD"/>
<path d="M76.5436 18.3165C76.632 17.6705 76.8419 16.8463 77.4828 16.0665C78.5986 14.3401 80.3995 13.4713 82.5429 13.4713C84.6863 13.4713 86.5314 14.3401 87.6473 16.0665C88.2439 16.8017 88.4649 17.6705 88.5422 18.3165H76.5436ZM82.5429 34.0888C88.9731 34.0888 92.6523 30.1569 94.0665 25.4453H88.1555C87.3822 27.4279 85.5039 29.0764 82.7529 29.0764C80.267 29.0764 78.3003 27.7844 77.1844 25.5344C76.7536 24.7992 76.3669 23.7188 76.2895 22.6829H94.4642V21.4354C94.4642 12.6693 88.5975 8.85986 82.3772 8.85986C74.1461 8.85986 70.2902 15.298 70.2902 21.647C70.2902 28.8203 75.1736 34.0888 82.5429 34.0888Z" fill="#37C3DD"/>
<path d="M102.596 33.6097V21.257C102.596 18.0602 102.982 16.2892 103.966 15.1196C104.739 14.1728 105.977 13.6493 107.656 13.6493C109.026 13.6493 110.009 13.9946 110.694 14.7297C111.512 15.632 111.854 17.1023 111.854 19.5639V33.6097H117.644V19.653C117.644 17.2359 117.644 15.0305 116.616 12.9142C115.589 10.6642 113.49 8.84856 109.114 8.84856C106.54 8.84856 104.529 9.71737 102.596 12.4352V0.639404H96.8064V33.6097H102.596Z" fill="#37C3DD"/>
<path d="M126.041 18.3165C126.129 17.6705 126.339 16.8463 126.98 16.0665C128.096 14.3401 129.897 13.4713 132.04 13.4713C134.183 13.4713 136.028 14.3401 137.144 16.0665C137.741 16.8017 137.962 17.6705 138.039 18.3165H126.041ZM132.04 34.0888C138.47 34.0888 142.149 30.1569 143.563 25.4453H137.653C136.879 27.4279 135.001 29.0764 132.25 29.0764C129.764 29.0764 127.797 27.7844 126.681 25.5344C126.251 24.7992 125.864 23.7188 125.787 22.6829H143.961V21.4354C143.961 12.6693 138.094 8.85986 131.874 8.85986C123.643 8.85986 119.787 15.298 119.787 21.647C119.787 28.8203 124.671 34.0888 132.04 34.0888Z" fill="#37C3DD"/>
<path d="M152.06 33.6098V21.257C152.06 18.0603 152.491 16.2892 153.474 15.1197C154.247 14.1729 155.44 13.6494 157.12 13.6494C158.49 13.6494 159.473 13.9947 160.158 14.7298C160.976 15.632 161.362 17.1023 161.362 19.564V33.6098H167.108V19.6531C167.108 17.236 167.108 15.0306 166.124 12.9142C165.053 10.6642 162.998 8.84863 158.622 8.84863C156.048 8.84863 153.993 9.71745 152.071 12.4353V9.37215H146.281V33.6098H152.071H152.06Z" fill="#37C3DD"/>
<path d="M203.435 18.3165C203.523 17.6705 203.733 16.8463 204.374 16.0665C205.49 14.3401 207.291 13.4713 209.434 13.4713C211.578 13.4713 213.423 14.3401 214.539 16.0665C215.135 16.8017 215.356 17.6705 215.433 18.3165H203.435ZM209.434 34.0888C215.864 34.0888 219.543 30.1569 220.958 25.4453H215.047C214.273 27.4279 212.395 29.0764 209.644 29.0764C207.158 29.0764 205.192 27.7844 204.076 25.5344C203.645 24.7992 203.258 23.7188 203.181 22.6829H221.355V21.4354C221.355 12.6693 215.489 8.85986 209.268 8.85986C201.037 8.85986 197.181 15.298 197.181 21.647C197.181 28.8203 202.065 34.0888 209.434 34.0888Z" fill="#37C3DD"/>
<path d="M229.454 33.6098V22.3709C229.454 19.1741 230.095 17.2249 231.387 15.9328C232.327 15.0306 233.697 14.4625 235.674 14.4625H237V8.84863H236.315C233.487 8.84863 231.299 9.71745 229.454 12.257V9.36101H223.665V33.6098H229.454Z" fill="#37C3DD"/>
<path d="M178.079 17.7928C178.399 17.0465 178.874 16.3559 179.471 15.7433C180.576 14.6294 181.979 13.9834 183.426 13.8052C179.614 12.9364 176.355 12.1121 176.355 9.19378C176.355 6.6876 178.587 5.35096 181.669 5.35096C185.017 5.35096 187.801 6.95492 188.608 10.4524H194.905C193.878 3.32373 188.089 0.0378418 181.791 0.0378418C175.493 0.0378418 170.223 3.36829 170.223 9.7173C170.223 14.8411 173.538 16.924 177.416 18.1381C177.626 18.0156 177.847 17.893 178.079 17.7928Z" fill="#A5A5A5"/>
<path d="M178.178 30.4015C177.427 30.0562 176.72 29.5772 176.09 28.9534C174.455 27.2938 173.814 25.0215 174.157 22.894H169.141C169.903 30.8582 176.333 33.8322 182.31 34.1775C181.316 33.8433 180.388 33.2864 179.592 32.4955C178.974 31.8718 178.499 31.1589 178.167 30.4015H178.178Z" fill="#A5A5A5"/>
<path d="M185.768 28.9985C185.338 29.4329 184.874 29.7893 184.376 30.0789C183.669 30.491 182.896 30.7695 182.111 30.892C182.896 30.7584 183.669 30.491 184.376 30.0789C184.874 29.7893 185.349 29.4329 185.768 28.9985C185.901 28.8648 186.034 28.72 186.155 28.5752C186.034 28.72 185.912 28.8648 185.768 28.9985Z" fill="#A5A5A5"/>
<path d="M189.138 15.7989C188.851 15.5093 188.531 15.2531 188.21 15.0192C186.785 14.0167 185.072 13.6046 183.426 13.8162C181.979 13.9944 180.576 14.6405 179.471 15.7543C178.863 16.367 178.399 17.0576 178.079 17.8038C178.012 17.9598 177.946 18.1269 177.891 18.2939C177.582 19.1739 177.46 20.0984 177.515 21.0118C177.582 22.1034 177.913 23.1838 178.487 24.164C178.664 24.4647 178.885 24.7655 179.117 25.0439C179.25 25.1999 179.382 25.3558 179.537 25.5118C180.156 26.1355 180.863 26.6145 181.625 26.9598C181.968 27.1157 182.321 27.2383 182.686 27.3274C182.984 27.4053 183.294 27.461 183.592 27.5056C183.006 27.3608 182.454 27.0489 181.99 26.5922C181.526 26.1355 181.194 25.5118 181.062 24.888C180.951 24.3868 180.951 23.8633 181.062 23.362V23.3175C181.062 23.3175 181.062 23.3397 181.062 23.362C181.139 22.6714 181.316 22.0031 181.592 21.3571C181.89 20.6887 182.299 20.0538 182.818 19.4858C182.874 19.4301 182.929 19.3633 182.984 19.2964C183.415 18.862 183.879 18.5056 184.376 18.216C184.73 18.0043 185.106 17.8373 185.481 17.7036C187.127 17.1133 188.961 17.1801 190.574 17.9041C190.243 17.1467 189.757 16.4338 189.138 15.7989Z" fill="#11BFDD"/>
<path d="M192.652 19.341C192.033 18.7173 191.326 18.2272 190.563 17.9041C188.95 17.1801 187.116 17.1133 185.481 17.7036C185.106 17.8373 184.73 18.0155 184.376 18.216C183.879 18.5056 183.404 18.8621 182.984 19.2965C182.929 19.3522 182.874 19.419 182.819 19.4858C182.299 20.0539 181.89 20.6777 181.592 21.346C181.316 21.9697 181.139 22.638 181.062 23.3064C181.205 22.716 181.493 22.1591 181.957 21.7024C182.421 21.2457 182.918 20.9673 183.47 20.8225C184.056 20.6665 184.675 20.6665 185.26 20.8225C185.901 20.9004 186.531 21.0786 187.138 21.3571C187.89 21.6913 188.597 22.1814 189.216 22.794C189.624 23.2061 189.967 23.6517 190.254 24.1306C191.414 26.0687 191.558 28.4635 190.663 30.4908C191.403 30.1678 192.088 29.6999 192.696 29.0873C195.359 26.4029 195.325 22.0477 192.641 19.341H192.652Z" fill="#A5A5A5"/>
<path d="M181.051 23.34C181.051 23.34 181.051 23.3177 181.062 23.2954C181.139 22.6271 181.316 21.9588 181.592 21.335C181.89 20.6667 182.299 20.0318 182.819 19.4749C182.299 20.0429 181.89 20.6667 181.592 21.3461C181.316 21.981 181.128 22.6605 181.062 23.3511L181.051 23.34Z" fill="#A5A5A5"/>
<path d="M182.984 19.2964C182.929 19.3521 182.874 19.419 182.819 19.4858C182.874 19.4301 182.929 19.3633 182.984 19.2964C183.415 18.862 183.879 18.5056 184.376 18.216C184.73 18.0044 185.094 17.8373 185.481 17.7036C185.106 17.8373 184.73 18.0155 184.376 18.216C183.879 18.5056 183.404 18.862 182.984 19.2964Z" fill="#A5A5A5"/>
<path d="M179.526 25.4896C179.382 25.3447 179.239 25.1888 179.106 25.0217C179.239 25.1777 179.371 25.3336 179.526 25.4896C180.145 26.1133 180.852 26.5923 181.614 26.9376C181.957 27.0935 182.31 27.216 182.675 27.3051C182.31 27.2049 181.957 27.0935 181.614 26.9376C180.863 26.6034 180.156 26.1133 179.526 25.4896Z" fill="#F9D14E"/>
<path d="M177.891 18.2827C177.582 19.1627 177.46 20.0872 177.515 21.0005C177.46 20.076 177.582 19.1515 177.891 18.2827Z" fill="#F9D14E"/>
<path d="M186.829 26.5923C186.398 27.0267 185.868 27.3274 185.315 27.4722C184.752 27.6282 184.155 27.6282 183.581 27.4722C183.271 27.4388 182.973 27.372 182.675 27.294C182.31 27.1938 181.957 27.0824 181.614 26.9264C180.863 26.5923 180.156 26.1133 179.526 25.4784C179.382 25.3336 179.239 25.1777 179.106 25.0106C178.874 24.7321 178.664 24.4425 178.476 24.1307C177.891 23.1616 177.57 22.0812 177.504 20.9784C177.449 20.0539 177.57 19.1294 177.88 18.2606C177.935 18.0935 178.001 17.9376 178.068 17.7705C177.847 17.8708 177.626 17.9933 177.405 18.1158C176.919 18.4054 176.455 18.7507 176.024 19.174C174.996 20.2099 174.366 21.5131 174.145 22.8609C173.792 24.9883 174.433 27.2606 176.079 28.9203C176.698 29.544 177.405 30.023 178.167 30.3683C179.405 30.9252 180.775 31.0923 182.089 30.8807C182.874 30.747 183.647 30.4797 184.354 30.0675C184.851 29.7779 185.326 29.4215 185.746 28.9871C185.879 28.8534 186.011 28.7086 186.133 28.5638C186.553 28.0626 186.895 27.5168 187.149 26.9376C187.404 26.3695 187.569 25.768 187.658 25.1554C187.503 25.6789 187.227 26.1579 186.818 26.57L186.829 26.5923Z" fill="#F9D14E"/>
<path d="M190.265 24.1419C189.978 23.6629 189.635 23.2174 189.238 22.8164C188.619 22.1815 187.912 21.7026 187.161 21.3684C186.564 21.1011 185.934 20.9228 185.304 20.8337C185.857 20.9897 186.387 21.2904 186.818 21.7248C187.249 22.1592 187.525 22.6605 187.691 23.1951C187.89 23.8412 187.89 24.5429 187.691 25.1889C187.603 25.8016 187.437 26.3919 187.183 26.9711C186.929 27.5503 186.597 28.0961 186.177 28.5974C186.056 28.7422 185.923 28.887 185.791 29.0206C185.36 29.455 184.896 29.8115 184.398 30.1011C183.691 30.5132 182.918 30.7917 182.134 30.9142C180.819 31.137 179.449 30.9699 178.211 30.4129C178.543 31.1704 179.018 31.8832 179.637 32.507C180.432 33.309 181.36 33.8659 182.354 34.1889C184.056 34.757 185.934 34.6456 187.558 33.8214C188.188 33.4983 188.785 33.0862 189.304 32.5516C189.912 31.9389 190.376 31.2483 190.696 30.5021C191.591 28.4748 191.447 26.0912 190.287 24.1419H190.265Z" fill="#FF6F00"/>
<path d="M189.227 22.7945C188.608 22.1708 187.901 21.6918 187.15 21.3577C186.542 21.0792 185.912 20.901 185.271 20.823H185.282C185.923 20.9121 186.542 21.0903 187.138 21.3577C187.89 21.6918 188.597 22.1708 189.216 22.7945H189.227Z" fill="#FF6F00"/>
<path d="M190.265 24.1421C189.978 23.6631 189.635 23.2175 189.227 22.8054C189.635 23.2175 189.978 23.6742 190.254 24.1421C191.414 26.0913 191.558 28.475 190.663 30.5022C191.558 28.475 191.414 26.0802 190.254 24.1421H190.265Z" fill="#FF6F00"/>
<path d="M178.178 30.3906C179.416 30.9476 180.786 31.1146 182.1 30.903C180.786 31.1258 179.416 30.9476 178.178 30.3906Z" fill="#FF6F00"/>
</svg>
