<svg width="169" height="168" viewBox="0 0 169 168" fill="none" xmlns="http://www.w3.org/2000/svg">
<g clip-path="url(#clip0_905_4046)">
<path d="M95.8696 122.901C92.3811 126.359 88.5273 129.274 84.4361 131.61C78.628 134.942 72.3268 137.132 65.8612 138.201C72.3451 137.132 78.6463 134.942 84.4726 131.61C88.5638 129.274 92.4176 126.359 95.9061 122.901C97.0202 121.797 98.0613 120.638 99.0658 119.461H99.011C98.0065 120.638 96.9837 121.797 95.8696 122.901Z" fill="#A5A5A5"/>
<path d="M123.558 16.4219C121.166 14.0501 118.59 11.986 115.924 10.1392C104.253 2.00978 90.2259 -1.23114 76.7103 0.416481C64.8384 1.86493 53.3684 7.02505 44.2728 16.0236C39.3231 20.9302 35.5059 26.543 32.8393 32.5541C32.2548 33.8396 31.7617 35.1613 31.2868 36.483C28.7663 43.5442 27.7253 51.0037 28.2001 58.4271C28.7663 67.2264 31.4329 75.9534 36.1999 83.8112C37.6976 86.2736 39.4145 88.6273 41.314 90.8724C42.3915 92.1579 43.5057 93.4072 44.7294 94.6022C49.8069 99.6356 55.6149 103.528 61.8065 106.244C64.6375 107.493 67.5598 108.489 70.5186 109.25C72.9843 109.883 75.4683 110.372 77.9705 110.662C73.1852 109.467 68.6374 107.005 64.875 103.275C61.1125 99.545 58.3728 94.6022 57.2405 89.5688V89.5326C56.309 85.495 56.3272 81.2945 57.2587 77.2389C57.2587 77.1302 57.2953 77.0216 57.3135 76.9129C57.277 77.0216 57.2405 77.1302 57.2039 77.257C57.8249 71.7347 59.2861 66.2668 61.5874 61.1067C64.0165 55.6931 67.3954 50.6054 71.6693 46.0428C72.1259 45.5539 72.546 45.0289 73.0391 44.5581C76.5276 41.0999 80.3814 38.1849 84.4726 35.8493C87.3949 34.1836 90.445 32.7894 93.5682 31.685C107.047 26.9051 122.061 27.4483 135.321 33.3145C132.563 27.1948 128.654 21.4191 123.577 16.3857L123.558 16.4219Z" fill="#11BFDD"/>
<path d="M152.379 45.0107C147.302 39.9774 141.512 36.0665 135.247 33.3869C122.006 27.5388 107.029 26.9775 93.55 31.7393C90.445 32.8437 87.4132 34.2198 84.5091 35.8855C80.4179 38.2211 76.5641 41.1361 73.0756 44.5943C72.5825 45.0832 72.1624 45.6082 71.6876 46.0971C67.432 50.6416 64.0348 55.7112 61.6422 61.1248C59.3774 66.1763 57.9528 71.5174 57.2953 76.9492C58.4459 72.1874 60.8568 67.6972 64.601 63.9855C68.1625 60.4549 72.4729 58.083 77.0025 56.8881C81.806 55.6026 86.8835 55.6207 91.7236 56.9243C91.7236 56.9243 91.7236 56.9243 91.7601 56.9243C91.7966 56.9243 91.8514 56.9243 91.8879 56.9424C91.8514 56.9424 91.8149 56.9062 91.7783 56.9062C97.0567 57.5942 102.226 59.0245 107.157 61.2334C113.349 63.9674 119.157 67.842 124.216 72.8573H124.234C127.576 76.1887 130.407 79.8098 132.745 83.6483C142.279 99.3097 143.412 118.538 136.106 134.887C142.17 132.262 147.832 128.478 152.781 123.571C174.571 101.971 174.351 66.7919 152.361 44.9926L152.379 45.0107Z" fill="#A5A5A5"/>
<path d="M57.2039 77.2932C57.2222 77.1846 57.277 77.076 57.3135 76.9492C57.9711 71.5175 59.3957 66.1764 61.6604 61.1249C64.0531 55.7113 67.4502 50.6417 71.7058 46.0972H71.6693C67.3955 50.6417 64.0166 55.7294 61.5874 61.143C59.2861 66.3031 57.8067 71.771 57.2039 77.2932Z" fill="#A5A5A5"/>
<path d="M73.0391 44.5943C72.5643 45.0651 72.1442 45.5901 71.6693 46.079H71.7058C72.1807 45.5901 72.6008 45.0651 73.0939 44.5762C76.5824 41.118 80.4362 38.203 84.5274 35.8674C87.4314 34.2017 90.4633 32.8256 93.5683 31.7212C90.4451 32.8256 87.3949 34.2017 84.4726 35.8855C80.3814 38.2211 76.5276 41.1361 73.0391 44.5943Z" fill="#A5A5A5"/>
<path d="M44.7294 94.6021C43.5239 93.4071 42.3916 92.1578 41.314 90.8723C42.3916 92.1578 43.5057 93.4071 44.7294 94.6021C49.8251 99.6536 55.6149 103.528 61.8066 106.244C55.6149 103.51 49.8069 99.6355 44.7294 94.6021Z" fill="#F9D14E"/>
<path d="M31.3051 36.4829C28.7846 43.526 27.7436 51.0037 28.2184 58.427C27.7436 51.0037 28.7846 43.5441 31.3051 36.4829Z" fill="#F9D14E"/>
<path d="M104.563 103.474C101.002 107.004 96.6914 109.376 92.1619 110.571C87.541 111.821 82.6279 111.839 77.9705 110.662C75.4683 110.372 72.9843 109.883 70.5186 109.25C67.5598 108.489 64.6375 107.493 61.8065 106.244C55.6149 103.51 49.8251 99.6535 44.7294 94.6021C43.5239 93.4071 42.3915 92.1578 41.3139 90.8723C39.4144 88.6091 37.6793 86.2553 36.1999 83.8111C31.4329 75.9713 28.7663 67.2444 28.2001 58.4269C27.7253 51.0036 28.7663 43.526 31.2868 36.4828C31.7617 35.1611 32.2548 33.8575 32.8393 32.572C30.9946 33.3687 29.2047 34.3283 27.433 35.3422C23.3966 37.6597 19.5976 40.5023 16.1457 43.9062C7.70753 52.2891 2.59352 62.7361 0.76708 73.6538C-2.11869 90.818 3.14145 109.141 16.584 122.485C21.6798 127.536 27.4696 131.411 33.6612 134.127H33.6977C43.8709 138.617 55.1035 139.975 65.8612 138.219C72.3268 137.15 78.628 134.96 84.4361 131.628C88.5273 129.293 92.381 126.378 95.8695 122.919C96.9837 121.815 98.0247 120.656 99.011 119.497C102.463 115.46 105.239 111.042 107.34 106.389C109.385 101.79 110.755 96.9739 111.486 92.0673C110.207 96.2678 107.906 100.197 104.563 103.51V103.474Z" fill="#F9D14E"/>
<path d="M132.745 83.6844C130.426 79.8641 127.595 76.2611 124.289 72.9659C124.271 72.9478 124.252 72.9115 124.216 72.8934C119.138 67.8601 113.349 63.9673 107.157 61.2696C102.28 59.0969 97.1298 57.6666 91.9062 56.9604C96.454 58.2278 100.746 60.6178 104.326 64.1665C107.906 67.7152 110.134 71.6623 111.467 75.9895C113.056 81.2221 113.056 86.8167 111.467 92.0311C110.755 96.9197 109.385 101.772 107.321 106.353C105.257 111.006 102.481 115.406 99.0475 119.443C98.043 120.62 97.0019 121.779 95.8878 122.883C92.3993 126.341 88.5455 129.256 84.4543 131.592C78.628 134.923 72.3268 137.132 65.843 138.183C55.0853 139.957 43.8709 138.599 33.6794 134.109C36.4008 140.247 40.3277 145.968 45.4052 151.001C51.889 157.429 59.5418 161.919 67.6694 164.581C81.6599 169.179 97.0385 168.22 110.298 161.647C115.467 159.076 120.325 155.691 124.636 151.418C129.586 146.511 133.403 140.898 136.088 134.869C143.393 118.538 142.279 99.3096 132.727 83.6301L132.745 83.6844Z" fill="#FF6F00"/>
<path d="M124.234 72.8754C119.175 67.8601 113.349 63.9674 107.175 61.2516C102.244 59.0427 97.0567 57.6123 91.7966 56.9243C91.8331 56.9243 91.8697 56.9605 91.9062 56.9605C97.1298 57.6485 102.28 59.097 107.157 61.2697C113.367 63.9855 119.138 67.8601 124.216 72.8935C124.234 72.9116 124.271 72.9478 124.289 72.9659L124.252 72.8935H124.234V72.8754Z" fill="#FF6F00"/>
<path d="M132.764 83.6664C130.426 79.828 127.595 76.2069 124.252 72.8936L124.289 72.966C127.595 76.2612 130.426 79.8642 132.745 83.6845C142.298 99.3641 143.412 118.574 136.106 134.924C143.412 118.556 142.279 99.3097 132.745 83.6664H132.764Z" fill="#FF6F00"/>
<path d="M33.6977 134.127C43.8892 138.635 55.1035 139.993 65.8612 138.219C55.0853 139.993 43.871 138.617 33.6977 134.127Z" fill="#FF6F00"/>
</g>
<defs>
<clipPath id="clip0_905_4046">
<rect width="169" height="167.477" fill="white"/>
</clipPath>
</defs>
</svg>
