<svg width="45" height="44" viewBox="0 0 45 44" fill="none" xmlns="http://www.w3.org/2000/svg">
<path d="M30.0938 22C30.0938 17.875 26.7188 14.575 22.5 14.575C18.2812 14.575 14.9063 17.875 14.9063 22C14.9063 26.125 18.2812 29.425 22.5 29.425C26.7188 29.425 30.0938 26.125 30.0938 22ZM34.0312 22C34.0312 28.325 28.9688 33.275 22.5 33.275C16.0312 33.275 10.9688 28.325 10.9688 22C10.9688 15.675 16.0312 10.725 22.5 10.725C28.9688 10.725 34.0312 15.675 34.0312 22ZM37.125 10.175C37.125 11.825 36 12.925 34.3125 12.925C32.625 12.925 31.5 11.825 31.5 10.175C31.5 8.525 32.625 7.425 34.3125 7.425C36 7.425 37.125 8.8 37.125 10.175ZM22.5 3.85C19.125 3.85 12.0938 3.575 9.28125 4.675C7.3125 5.5 5.625 7.15 5.0625 9.075C3.9375 11.825 4.21875 18.7 4.21875 22C4.21875 25.3 3.9375 32.175 5.0625 34.925C5.625 36.85 7.3125 38.5 9.28125 39.05C12.0938 40.15 19.4062 39.875 22.5 39.875C25.5938 39.875 32.9062 40.15 35.7188 39.05C37.6875 38.225 39.0938 36.85 39.9375 34.925C41.0625 31.9 40.7812 25.025 40.7812 22C40.7812 18.975 41.0625 11.825 39.9375 9.075C39.375 7.15 37.6875 5.5 35.7188 4.95C32.9062 3.575 25.875 3.85 22.5 3.85ZM45 22V31.075C45 34.375 43.875 37.675 41.3438 40.425C38.8125 42.9 35.4375 44 31.7812 44H13.2187C9.84375 44 6.46875 42.9 3.65625 40.425C1.40625 37.95 0 34.65 0 31.075V22V12.925C0 9.35 1.40625 6.05 3.65625 3.575C6.46875 1.375 9.84375 0 13.2187 0H31.7812C35.1562 0 38.5313 1.1 41.3438 3.575C43.5938 6.05 45 9.35 45 12.925V22Z" fill="white"/>
</svg>
