<svg width="16" height="14" viewBox="0 0 16 14" fill="none" xmlns="http://www.w3.org/2000/svg">
<path d="M16 3.5605V10.6875C16 11.3505 15.7366 11.9864 15.2678 12.4553C14.7989 12.9241 14.163 13.1875 13.5 13.1875H2.5C1.83696 13.1875 1.20107 12.9241 0.732233 12.4553C0.263392 11.9864 0 11.3505 0 10.6875V3.5605L7.746 8.1185C7.82295 8.16388 7.91066 8.18782 8 8.18782C8.08934 8.18782 8.17705 8.16388 8.254 8.1185L16 3.5605ZM13.5 0.1875C14.1151 0.187403 14.7087 0.414107 15.1672 0.82424C15.6257 1.23437 15.9168 1.79914 15.985 2.4105L8 7.1075L0.0150001 2.4105C0.0831583 1.79914 0.374324 1.23437 0.832795 0.82424C1.29127 0.414107 1.88485 0.187403 2.5 0.1875H13.5Z" fill="#11BFDD"/>
</svg>
