<svg width="13" height="17" viewBox="0 0 13 17" fill="none" xmlns="http://www.w3.org/2000/svg">
<path d="M3.98694 0.253478C4.42452 0.121545 4.89409 0.143463 5.31748 0.315585C5.74087 0.487706 6.09254 0.799646 6.31394 1.19948L6.38894 1.34848L7.04994 2.81948C7.25085 3.26596 7.31606 3.76166 7.23748 4.24491C7.15889 4.72817 6.93997 5.17766 6.60794 5.53748L6.47594 5.66948L5.43194 6.64248C5.24394 6.82048 5.38494 7.50948 6.06594 8.68748C6.67694 9.74748 7.17594 10.2425 7.41994 10.2695H7.46294L7.51594 10.2595L9.56594 9.63248C9.84145 9.54798 10.1355 9.54464 10.4128 9.62285C10.6902 9.70105 10.9392 9.8575 11.1299 10.0735L11.2219 10.1885L12.5779 12.0685C12.844 12.4369 12.9767 12.8849 12.9542 13.3387C12.9316 13.7926 12.7552 14.2253 12.4539 14.5655L12.3319 14.6915L11.7889 15.2055C11.3022 15.6664 10.6934 15.9779 10.0348 16.1028C9.37627 16.2278 8.69567 16.1611 8.07394 15.9105C6.13894 15.1305 4.38094 13.3485 2.78394 10.5825C1.18394 7.80948 0.51894 5.39248 0.81594 3.32248C0.905901 2.69663 1.16372 2.10684 1.562 1.61577C1.96028 1.1247 2.48414 0.750691 3.07794 0.533478L3.27094 0.469478L3.98694 0.253478Z" fill="#11BFDD"/>
</svg>
