<svg width="308" height="69" viewBox="0 0 308 69" fill="none" xmlns="http://www.w3.org/2000/svg">
<path d="M86.4699 17.51C93.7699 17.51 98.3699 22.07 98.3699 29.27C98.3699 36.47 93.7699 41.08 86.4699 41.08H80.7999V49.91C80.7999 50.47 80.5199 50.75 80.0099 50.75H74.1499C73.6399 50.75 73.3599 50.47 73.3599 49.91V18.34C73.3599 17.78 73.6399 17.5 74.1499 17.5H86.4699V17.51ZM85.4499 34.16C88.9799 34.16 90.6999 32.58 90.6999 29.28C90.6999 25.98 88.9799 24.4 85.4499 24.4H80.7999V34.16H85.4499Z" fill="#1D3D90"/>
<path d="M114.23 51.31C106.05 51.31 101.3 46.66 101.3 38.52V18.34C101.3 17.78 101.58 17.5 102.14 17.5H108.04C108.55 17.5 108.88 17.78 108.88 18.34V38.52C108.88 42.29 110.79 44.24 114.23 44.24C117.67 44.24 119.67 42.29 119.67 38.52V18.34C119.67 17.78 119.95 17.5 120.46 17.5H126.41C126.92 17.5 127.2 17.78 127.2 18.34V38.52C127.2 46.66 122.41 51.31 114.23 51.31Z" fill="#1D3D90"/>
<path d="M144.96 51.3999C136.78 51.3999 131.38 47.0799 131.38 38.9899V29.2699C131.38 21.1799 136.82 16.8999 144.82 16.8999C148.54 16.8999 152.12 18.0199 154.77 19.8799C155.23 20.1599 155.28 20.5299 155 20.9499L152.07 25.4099C151.74 25.8699 151.37 25.9199 150.91 25.6399C149.19 24.5199 147 23.9699 144.96 23.9699C141.05 23.9699 138.96 26.1999 138.96 29.5499V38.6599C138.96 42.2399 141.19 44.2799 145.01 44.2799C147.34 44.2799 149.61 43.5799 151.47 42.3299C151.93 41.9999 152.31 42.0499 152.59 42.5199L155.56 46.9799C155.84 47.3999 155.84 47.7699 155.52 47.9999C152.82 49.9999 149.29 51.3899 144.97 51.3899" fill="#1D3D90"/>
<path d="M166.11 44.0098H179.92C180.43 44.0098 180.76 44.2898 180.76 44.7998V49.9198C180.76 50.4798 180.43 50.7598 179.92 50.7598H159.46C158.9 50.7598 158.62 50.4798 158.62 49.9198V18.3498C158.62 17.7898 158.9 17.5098 159.46 17.5098H179.17C179.73 17.5098 180.01 17.7898 180.01 18.3498V23.4698C180.01 23.9798 179.73 24.2598 179.17 24.2598H166.1V30.6298H177.63C178.19 30.6298 178.47 30.9098 178.47 31.4198V36.4398C178.47 36.9498 178.19 37.2298 177.63 37.2298H166.1V44.0198L166.11 44.0098Z" fill="#1D3D90"/>
<path d="M31.5798 7.02C26.9398 7.46 22.6398 9.06 18.9798 11.52C18.4898 11.85 18.0098 12.2 17.5398 12.56L19.3098 14.33C19.7798 13.98 20.2698 13.63 20.7698 13.31C22.9598 11.9 25.3998 10.82 27.9898 10.15V25.5L29.2298 26.74V9.87C30.0398 9.7 30.8698 9.58 31.7098 9.5V29.22L34.1898 31.7L36.6698 29.22V9.5C37.5098 9.58 38.3398 9.71 39.1498 9.87V26.74L40.3898 25.5V10.15C42.9898 10.82 45.4198 11.9 47.6098 13.31C48.1098 13.63 48.5998 13.97 49.0698 14.33L50.8398 12.56C50.3698 12.2 49.8898 11.85 49.3998 11.52C45.7298 9.05 41.4398 7.46 36.7998 7.02L34.1798 0L31.5598 7.02" fill="#1D3D90"/>
<path d="M36.8098 61.3597C41.4498 60.9197 45.7498 59.3197 49.4098 56.8497C49.8998 56.5197 50.3798 56.1697 50.8498 55.8097L49.0798 54.0397C48.6098 54.3997 48.1198 54.7397 47.6198 55.0597C45.4198 56.4697 42.9898 57.5497 40.3998 58.2197V42.8697L39.1598 41.6297V58.4997C38.3498 58.6597 37.5198 58.7897 36.6798 58.8697V39.1397L34.1998 36.6597L31.7198 39.1397V58.8697C30.8798 58.7897 30.0498 58.6597 29.2398 58.4997V41.6297L27.9998 42.8697V58.2197C25.3998 57.5497 22.9698 56.4697 20.7798 55.0597C20.2798 54.7397 19.7898 54.3997 19.3198 54.0397L17.5498 55.8097C18.0198 56.1697 18.4998 56.5197 18.9898 56.8497C22.6598 59.3197 26.9498 60.9097 31.5898 61.3597L34.2098 68.3797L36.8298 61.3597" fill="#1D3D90"/>
<path d="M7.02 36.7998C7.46 41.4398 9.06 45.7398 11.53 49.3998C11.86 49.8898 12.21 50.3698 12.57 50.8398L14.34 49.0698C13.98 48.5898 13.64 48.1098 13.32 47.5998C11.91 45.4098 10.83 42.9698 10.16 40.3798H25.51L26.75 39.1398H9.87C9.7 38.3298 9.58 37.4998 9.5 36.6598H29.23L31.71 34.1798L29.23 31.6998H9.5C9.58 30.8598 9.71 30.0298 9.87 29.2198H26.75L25.51 27.9798H10.16C10.83 25.3798 11.91 22.9498 13.32 20.7598C13.64 20.2598 13.98 19.7698 14.34 19.2998L12.57 17.5298C12.21 17.9998 11.86 18.4798 11.53 18.9698C9.06 22.6398 7.47 26.9398 7.02 31.5698L0 34.1898L7.02 36.8098" fill="#1D3D90"/>
<path d="M61.3699 36.7998C60.9299 41.4398 59.3299 45.7398 56.8699 49.3998C56.5399 49.8898 56.1899 50.3698 55.8299 50.8398L54.0599 49.0698C54.4199 48.5898 54.7599 48.1098 55.0799 47.5998C56.4899 45.4098 57.5699 42.9698 58.2399 40.3798H42.8799L41.6399 39.1398H58.5199C58.6799 38.3298 58.8099 37.4998 58.8999 36.6598H39.1699L36.6899 34.1798L39.1699 31.6998H58.8999C58.8199 30.8598 58.6899 30.0298 58.5199 29.2198H41.6399L42.8799 27.9798H58.2399C57.5699 25.3798 56.4899 22.9498 55.0799 20.7598C54.7599 20.2598 54.4199 19.7698 54.0599 19.2998L55.8299 17.5298C56.1899 17.9998 56.5399 18.4798 56.8699 18.9698C59.3399 22.6398 60.9299 26.9398 61.3699 31.5698L68.3899 34.1898L61.3699 36.8098" fill="#1D3D90"/>
<path d="M192.68 8.25H191.83V60.57H192.68V8.25Z" fill="#1D3D90"/>
<path d="M210.88 43.7201C210.88 44.0201 210.73 44.1601 210.47 44.1601H207.75C207.48 44.1601 207.34 44.0101 207.34 43.7201V23.5001C207.34 23.2101 207.49 23.0601 207.75 23.0601H210.47C210.73 23.0601 210.88 23.2101 210.88 23.5001V43.7201Z" fill="#1D3D90"/>
<path d="M228.04 32.9701C230.02 33.8301 231.05 35.6001 231.05 37.8401C231.05 41.8001 228.36 44.1601 223.82 44.1601H216.14C215.87 44.1601 215.73 44.0101 215.73 43.7201V23.5001C215.73 23.2101 215.88 23.0601 216.14 23.0601H223.82C227.81 23.0601 230.14 25.1801 230.14 28.8501C230.14 30.6801 229.37 32.1901 228.04 32.9801V32.9701ZM223.7 26.2401H219.27V31.5801H223.7C225.35 31.5801 226.53 30.7501 226.53 28.8901C226.53 27.0301 225.32 26.2301 223.7 26.2301V26.2401ZM223.79 40.9701C225.91 40.9701 227.42 40.0801 227.42 37.8101C227.42 35.9501 226.3 34.6801 223.76 34.6801H219.27V40.9701H223.79Z" fill="#1D3D90"/>
<path d="M232.73 44.1601C232.41 44.1601 232.29 43.9801 232.38 43.6601L239.47 23.4101C239.56 23.1701 239.71 23.0601 239.94 23.0601H243.31C243.55 23.0601 243.69 23.1801 243.78 23.4101L250.87 43.6601C250.96 43.9801 250.81 44.1601 250.52 44.1601H247.63C247.39 44.1601 247.19 44.0401 247.13 43.8101L245.68 39.3501H237.59L236.14 43.8101C236.05 44.0501 235.87 44.1601 235.64 44.1601H232.75H232.73ZM238.58 36.1301H244.66L241.68 26.9501H241.56L238.58 36.1301Z" fill="#1D3D90"/>
<path d="M265.34 44.1601C265.13 44.1601 264.96 44.0701 264.84 43.8701L259.67 36.4601H257.04V43.7201C257.04 44.0201 256.89 44.1601 256.63 44.1601H253.91C253.64 44.1601 253.5 44.0101 253.5 43.7201V23.5001C253.5 23.2101 253.65 23.0601 253.91 23.0601H260.76C265.6 23.0601 268.44 25.5701 268.44 29.7901C268.44 33.0401 266.64 35.2501 263.54 36.0801L268.94 43.6401C269.15 43.9601 269 44.1701 268.68 44.1701H265.34V44.1601ZM257.04 26.3301V33.2701H260.76C263.51 33.2701 264.8 32.1801 264.8 29.8201C264.8 27.4601 263.5 26.3401 260.76 26.3401H257.04V26.3301Z" fill="#1D3D90"/>
<path d="M284.15 44.1601C283.94 44.1601 283.77 44.0701 283.65 43.8701L278.48 36.4601H275.85V43.7201C275.85 44.0201 275.7 44.1601 275.44 44.1601H272.72C272.45 44.1601 272.31 44.0101 272.31 43.7201V23.5001C272.31 23.2101 272.46 23.0601 272.72 23.0601H279.57C284.41 23.0601 287.25 25.5701 287.25 29.7901C287.25 33.0401 285.45 35.2501 282.35 36.0801L287.75 43.6401C287.96 43.9601 287.81 44.1701 287.49 44.1701H284.15V44.1601ZM275.85 26.3301V33.2701H279.57C282.32 33.2701 283.61 32.1801 283.61 29.8201C283.61 27.4601 282.31 26.3401 279.57 26.3401H275.85V26.3301Z" fill="#1D3D90"/>
<path d="M289.26 44.1601C288.94 44.1601 288.82 43.9801 288.91 43.6601L296 23.4101C296.09 23.1701 296.24 23.0601 296.47 23.0601H299.84C300.08 23.0601 300.22 23.1801 300.31 23.4101L307.4 43.6601C307.49 43.9801 307.34 44.1601 307.05 44.1601H304.16C303.92 44.1601 303.72 44.0401 303.66 43.8101L302.21 39.3501H294.12L292.67 43.8101C292.58 44.0501 292.4 44.1601 292.17 44.1601H289.28H289.26ZM295.11 36.1301H301.19L298.21 26.9501H298.09L295.11 36.1301Z" fill="#1D3D90"/>
</svg>
